<svg class="svg-icon" style="width: 1.27734375em; height: 1em;vertical-align: middle;fill: currentColor;overflow: hidden;" viewBox="0 0 1308 1024" version="1.1" xmlns="http://www.w3.org/2000/svg"><path d="M1088.768 263.594667l-191.345778 248.376889h157.809778c0 205.511111-195.413333 401.009778-400.810667 401.009777-62.691556 0-122.339556-15.473778-173.710222-43.463111l-90.851555 62.293334a492.088889 492.088889 0 0 0 264.419555 77.056c274.289778 0 496.611556-222.293333 496.611556-496.896h157.809777l-219.932444-248.376889zM253.496889 511.971556c0-205.511111 195.413333-401.009778 400.782222-401.009778 62.72 0 122.368 15.473778 173.738667 43.463111l90.709333-62.293333A492.088889 492.088889 0 0 0 654.279111 15.075556C380.017778 15.075556 157.696 237.368889 157.696 511.971556H0.028444l219.790223 248.376888 191.345777-248.376888H253.496889z"  /></svg>